<svg width="25756" height="23817" viewBox="0 0 25756 23817" fill="none" xmlns="http://www.w3.org/2000/svg">
<g filter="url(#filter0_i_1_131)">
<g clip-path="url(#paint0_diamond_1_131_clip_path)" data-figma-skip-parse="true"><g transform="matrix(-80.054 -65.0875 39.0532 -48.0316 9856.93 11907.8)"><rect x="0" y="0" width="192.397" height="311.295" fill="url(#paint0_diamond_1_131)" opacity="1" shape-rendering="crispEdges"/><rect x="0" y="0" width="192.397" height="311.295" transform="scale(1 -1)" fill="url(#paint0_diamond_1_131)" opacity="1" shape-rendering="crispEdges"/><rect x="0" y="0" width="192.397" height="311.295" transform="scale(-1 1)" fill="url(#paint0_diamond_1_131)" opacity="1" shape-rendering="crispEdges"/><rect x="0" y="0" width="192.397" height="311.295" transform="scale(-1)" fill="url(#paint0_diamond_1_131)" opacity="1" shape-rendering="crispEdges"/></g></g><path fill-rule="evenodd" clip-rule="evenodd" d="M24.5954 3765.45C-327.92 1402.68 3190.11 -136.829 5369.52 9.61175C7954.9 183.331 9348.62 992.095 10679.5 1764.38C12036.2 2551.71 13327.7 3301.13 15749.8 3301.13C17511.4 3301.13 18991.6 2686.94 20300 2144.05C22141.6 1379.95 23642.7 757.099 25108.6 2186.76C26567.8 3609.86 25305.9 5048 23833.4 6726.19C21836 9002.56 19451.2 11720.6 22944.1 15441.8C30298.7 23277.2 8838.18 28084.6 13675.8 18479.2C15811.7 14238.4 12530.5 8470.56 7144.29 7139.51C6660.07 7019.85 6108.91 6915.87 5532.48 6807.13C3148.65 6357.43 332.035 5826.08 24.5954 3765.45Z" data-figma-gradient-fill="{&#34;type&#34;:&#34;GRADIENT_DIAMOND&#34;,&#34;stops&#34;:[{&#34;color&#34;:{&#34;r&#34;:0.58039218187332153,&#34;g&#34;:0.64313727617263794,&#34;b&#34;:0.96078431606292725,&#34;a&#34;:1.0},&#34;position&#34;:0.0},{&#34;color&#34;:{&#34;r&#34;:0.92941176891326904,&#34;g&#34;:0.70196080207824707,&#34;b&#34;:0.97647058963775635,&#34;a&#34;:1.0},&#34;position&#34;:0.33262199163436890}],&#34;stopsVar&#34;:[{&#34;color&#34;:{&#34;r&#34;:0.58039218187332153,&#34;g&#34;:0.64313727617263794,&#34;b&#34;:0.96078431606292725,&#34;a&#34;:1.0},&#34;position&#34;:0.0},{&#34;color&#34;:{&#34;r&#34;:0.92941176891326904,&#34;g&#34;:0.70196080207824707,&#34;b&#34;:0.97647058963775635,&#34;a&#34;:1.0},&#34;position&#34;:0.33262199163436890}],&#34;transform&#34;:{&#34;m00&#34;:-160108.031250,&#34;m01&#34;:78106.31250,&#34;m02&#34;:50857.792968750,&#34;m10&#34;:-130174.9218750,&#34;m11&#34;:-96063.17968750,&#34;m12&#34;:125026.85156250},&#34;opacity&#34;:1.0,&#34;blendMode&#34;:&#34;NORMAL&#34;,&#34;visible&#34;:true}"/>
</g>
<defs>
<filter id="filter0_i_1_131" x="-40" y="0" width="25796" height="23817" filterUnits="userSpaceOnUse" color-interpolation-filters="sRGB">
<feFlood flood-opacity="0" result="BackgroundImageFix"/>
<feBlend mode="normal" in="SourceGraphic" in2="BackgroundImageFix" result="shape"/>
<feColorMatrix in="SourceAlpha" type="matrix" values="0 0 0 0 0 0 0 0 0 0 0 0 0 0 0 0 0 0 127 0" result="hardAlpha"/>
<feOffset dx="-40"/>
<feGaussianBlur stdDeviation="125"/>
<feComposite in2="hardAlpha" operator="arithmetic" k2="-1" k3="1"/>
<feColorMatrix type="matrix" values="0 0 0 0 0.185559 0 0 0 0 0.156389 0 0 0 0 0.326923 0 0 0 0.75 0"/>
<feBlend mode="normal" in2="shape" result="effect1_innerShadow_1_131"/>
</filter>
<clipPath id="paint0_diamond_1_131_clip_path"><path fill-rule="evenodd" clip-rule="evenodd" d="M24.5954 3765.45C-327.92 1402.68 3190.11 -136.829 5369.52 9.61175C7954.9 183.331 9348.62 992.095 10679.5 1764.38C12036.2 2551.71 13327.7 3301.13 15749.8 3301.13C17511.4 3301.13 18991.6 2686.94 20300 2144.05C22141.6 1379.95 23642.7 757.099 25108.6 2186.76C26567.8 3609.86 25305.9 5048 23833.4 6726.19C21836 9002.56 19451.2 11720.6 22944.1 15441.8C30298.7 23277.2 8838.18 28084.6 13675.8 18479.2C15811.7 14238.4 12530.5 8470.56 7144.29 7139.51C6660.07 7019.85 6108.91 6915.87 5532.48 6807.13C3148.65 6357.43 332.035 5826.08 24.5954 3765.45Z"/></clipPath><linearGradient id="paint0_diamond_1_131" x1="0" y1="0" x2="500" y2="500" gradientUnits="userSpaceOnUse">
<stop stop-color="#94A4F5"/>
<stop offset="0.332622" stop-color="#EDB3F9"/>
</linearGradient>
</defs>
</svg>
