<svg width="3580" height="3311" viewBox="0 0 3580 3311" fill="none" xmlns="http://www.w3.org/2000/svg">
<g filter="url(#filter0_i_5_9)">
<g clip-path="url(#paint0_diamond_5_9_clip_path)" data-figma-skip-parse="true"><g transform="matrix(-11.1272 -9.04835 5.42826 -6.67727 1370.08 1655.4)"><rect x="0" y="0" width="192.481" height="311.436" fill="url(#paint0_diamond_5_9)" opacity="1" shape-rendering="crispEdges"/><rect x="0" y="0" width="192.481" height="311.436" transform="scale(1 -1)" fill="url(#paint0_diamond_5_9)" opacity="1" shape-rendering="crispEdges"/><rect x="0" y="0" width="192.481" height="311.436" transform="scale(-1 1)" fill="url(#paint0_diamond_5_9)" opacity="1" shape-rendering="crispEdges"/><rect x="0" y="0" width="192.481" height="311.436" transform="scale(-1)" fill="url(#paint0_diamond_5_9)" opacity="1" shape-rendering="crispEdges"/></g></g><path fill-rule="evenodd" clip-rule="evenodd" d="M3.41868 523.466C-45.5798 194.998 443.415 -19.0218 746.346 1.33621C1105.71 25.4864 1299.43 137.919 1484.41 245.282C1673 354.734 1852.5 458.917 2189.18 458.917C2434.02 458.917 2639.77 373.534 2821.64 298.063C3077.61 191.839 3286.26 105.251 3490.01 303.999C3692.83 501.837 3517.44 701.765 3312.76 935.064C3035.14 1251.52 2703.65 1629.38 3189.15 2146.7C4211.43 3235.96 1228.48 3904.28 1900.9 2568.95C2197.77 1979.41 1741.7 1177.56 993.033 992.523C647.383 907.092 56.4849 879.202 3.41868 523.466Z" data-figma-gradient-fill="{&#34;type&#34;:&#34;GRADIENT_DIAMOND&#34;,&#34;stops&#34;:[{&#34;color&#34;:{&#34;r&#34;:0.58039218187332153,&#34;g&#34;:0.64313727617263794,&#34;b&#34;:0.96078431606292725,&#34;a&#34;:1.0},&#34;position&#34;:0.0},{&#34;color&#34;:{&#34;r&#34;:0.92941176891326904,&#34;g&#34;:0.70196080207824707,&#34;b&#34;:0.97647058963775635,&#34;a&#34;:1.0},&#34;position&#34;:0.33262199163436890}],&#34;stopsVar&#34;:[{&#34;color&#34;:{&#34;r&#34;:0.58039218187332153,&#34;g&#34;:0.64313727617263794,&#34;b&#34;:0.96078431606292725,&#34;a&#34;:1.0},&#34;position&#34;:0.0},{&#34;color&#34;:{&#34;r&#34;:0.92941176891326904,&#34;g&#34;:0.70196080207824707,&#34;b&#34;:0.97647058963775635,&#34;a&#34;:1.0},&#34;position&#34;:0.33262199163436890}],&#34;transform&#34;:{&#34;m00&#34;:-22254.4941406250,&#34;m01&#34;:10856.52246093750,&#34;m02&#34;:7069.06738281250,&#34;m10&#34;:-18096.7031250,&#34;m11&#34;:-13354.5449218750,&#34;m12&#34;:17381.0253906250},&#34;opacity&#34;:1.0,&#34;blendMode&#34;:&#34;NORMAL&#34;,&#34;visible&#34;:true}"/>
</g>
<defs>
<filter id="filter0_i_5_9" x="-40" y="0" width="3620" height="3311" filterUnits="userSpaceOnUse" color-interpolation-filters="sRGB">
<feFlood flood-opacity="0" result="BackgroundImageFix"/>
<feBlend mode="normal" in="SourceGraphic" in2="BackgroundImageFix" result="shape"/>
<feColorMatrix in="SourceAlpha" type="matrix" values="0 0 0 0 0 0 0 0 0 0 0 0 0 0 0 0 0 0 127 0" result="hardAlpha"/>
<feOffset dx="-40"/>
<feGaussianBlur stdDeviation="125"/>
<feComposite in2="hardAlpha" operator="arithmetic" k2="-1" k3="1"/>
<feColorMatrix type="matrix" values="0 0 0 0 0.185559 0 0 0 0 0.156389 0 0 0 0 0.326923 0 0 0 0.35 0"/>
<feBlend mode="normal" in2="shape" result="effect1_innerShadow_5_9"/>
</filter>
<clipPath id="paint0_diamond_5_9_clip_path"><path fill-rule="evenodd" clip-rule="evenodd" d="M3.41868 523.466C-45.5798 194.998 443.415 -19.0218 746.346 1.33621C1105.71 25.4864 1299.43 137.919 1484.41 245.282C1673 354.734 1852.5 458.917 2189.18 458.917C2434.02 458.917 2639.77 373.534 2821.64 298.063C3077.61 191.839 3286.26 105.251 3490.01 303.999C3692.83 501.837 3517.44 701.765 3312.76 935.064C3035.14 1251.52 2703.65 1629.38 3189.15 2146.7C4211.43 3235.96 1228.48 3904.28 1900.9 2568.95C2197.77 1979.41 1741.7 1177.56 993.033 992.523C647.383 907.092 56.4849 879.202 3.41868 523.466Z"/></clipPath><linearGradient id="paint0_diamond_5_9" x1="0" y1="0" x2="500" y2="500" gradientUnits="userSpaceOnUse">
<stop stop-color="#94A4F5"/>
<stop offset="0.332622" stop-color="#EDB3F9"/>
</linearGradient>
</defs>
</svg>
