<?xml version="1.0" encoding="UTF-8"?>
<svg id="Layer_2" data-name="Layer 2" xmlns="http://www.w3.org/2000/svg" xmlns:xlink="http://www.w3.org/1999/xlink" viewBox="0 0 476.28 107.93">
  <defs>
    <style>
      .cls-1 {
        fill: url(#linear-gradient-8);
      }

      .cls-2 {
        fill: url(#linear-gradient-7);
      }

      .cls-3 {
        fill: url(#linear-gradient-5);
      }

      .cls-4 {
        fill: url(#linear-gradient-6);
      }

      .cls-5 {
        fill: url(#linear-gradient-9);
      }

      .cls-6 {
        fill: url(#linear-gradient-4);
      }

      .cls-7 {
        fill: url(#linear-gradient-3);
      }

      .cls-8 {
        fill: url(#linear-gradient-2);
      }

      .cls-9 {
        fill: url(#linear-gradient);
      }

      .cls-10 {
        fill: url(#linear-gradient-10);
      }

      .cls-11 {
        fill: url(#linear-gradient-11);
      }

      .cls-12 {
        fill: url(#linear-gradient-12);
      }

      .cls-13 {
        fill: url(#linear-gradient-13);
      }

      .cls-14 {
        fill: url(#linear-gradient-14);
      }
    </style>
    <linearGradient id="linear-gradient" x1="86.05" y1="51.46" x2="-1.79" y2="60.54" gradientTransform="translate(0 110.03) scale(1 -1)" gradientUnits="userSpaceOnUse">
      <stop offset="0" stop-color="#55185b"/>
      <stop offset=".1" stop-color="#55185a"/>
      <stop offset=".52" stop-color="#4b1963"/>
      <stop offset="1" stop-color="#3a1a6e"/>
    </linearGradient>
    <linearGradient id="linear-gradient-2" x1="102.59" y1="50.99" x2="476.28" y2="50.99" gradientTransform="translate(0 110.03) scale(1 -1)" gradientUnits="userSpaceOnUse">
      <stop offset="0" stop-color="#55185b"/>
      <stop offset=".1" stop-color="#55185a"/>
      <stop offset=".52" stop-color="#4b1963"/>
      <stop offset="1" stop-color="#3a1a6e"/>
    </linearGradient>
    <linearGradient id="linear-gradient-3" x1="102.59" y1="50.99" x2="476.28" y2="50.99" gradientTransform="translate(0 110.03) scale(1 -1)" gradientUnits="userSpaceOnUse">
      <stop offset="0" stop-color="#55185b"/>
      <stop offset=".1" stop-color="#55185a"/>
      <stop offset=".52" stop-color="#4b1963"/>
      <stop offset="1" stop-color="#3a1a6e"/>
    </linearGradient>
    <linearGradient id="linear-gradient-4" x1="102.59" y1="48.49" x2="476.28" y2="48.49" gradientTransform="translate(0 110.03) scale(1 -1)" gradientUnits="userSpaceOnUse">
      <stop offset="0" stop-color="#55185b"/>
      <stop offset=".1" stop-color="#55185a"/>
      <stop offset=".52" stop-color="#4b1963"/>
      <stop offset="1" stop-color="#3a1a6e"/>
    </linearGradient>
    <linearGradient id="linear-gradient-5" x1="102.59" y1="50.99" x2="476.28" y2="50.99" gradientTransform="translate(0 110.03) scale(1 -1)" gradientUnits="userSpaceOnUse">
      <stop offset="0" stop-color="#55185b"/>
      <stop offset=".1" stop-color="#55185a"/>
      <stop offset=".52" stop-color="#4b1963"/>
      <stop offset="1" stop-color="#3a1a6e"/>
    </linearGradient>
    <linearGradient id="linear-gradient-6" x1="102.59" y1="50.99" x2="476.28" y2="50.99" gradientTransform="translate(0 110.03) scale(1 -1)" gradientUnits="userSpaceOnUse">
      <stop offset="0" stop-color="#55185b"/>
      <stop offset=".1" stop-color="#55185a"/>
      <stop offset=".52" stop-color="#4b1963"/>
      <stop offset="1" stop-color="#3a1a6e"/>
    </linearGradient>
    <linearGradient id="linear-gradient-7" x1="102.59" y1="50.99" x2="476.28" y2="50.99" gradientTransform="translate(0 110.03) scale(1 -1)" gradientUnits="userSpaceOnUse">
      <stop offset="0" stop-color="#55185b"/>
      <stop offset=".1" stop-color="#55185a"/>
      <stop offset=".52" stop-color="#4b1963"/>
      <stop offset="1" stop-color="#3a1a6e"/>
    </linearGradient>
    <linearGradient id="linear-gradient-8" x1="102.59" y1="48.49" x2="476.28" y2="48.49" gradientTransform="translate(0 110.03) scale(1 -1)" gradientUnits="userSpaceOnUse">
      <stop offset="0" stop-color="#55185b"/>
      <stop offset=".1" stop-color="#55185a"/>
      <stop offset=".52" stop-color="#4b1963"/>
      <stop offset="1" stop-color="#3a1a6e"/>
    </linearGradient>
    <linearGradient id="linear-gradient-9" x1="102.59" y1="50.99" x2="476.28" y2="50.99" gradientTransform="translate(0 110.03) scale(1 -1)" gradientUnits="userSpaceOnUse">
      <stop offset="0" stop-color="#55185b"/>
      <stop offset=".1" stop-color="#55185a"/>
      <stop offset=".52" stop-color="#4b1963"/>
      <stop offset="1" stop-color="#3a1a6e"/>
    </linearGradient>
    <linearGradient id="linear-gradient-10" x1="102.59" y1="50.99" x2="476.28" y2="50.99" gradientTransform="translate(0 110.03) scale(1 -1)" gradientUnits="userSpaceOnUse">
      <stop offset="0" stop-color="#55185b"/>
      <stop offset=".1" stop-color="#55185a"/>
      <stop offset=".52" stop-color="#4b1963"/>
      <stop offset="1" stop-color="#3a1a6e"/>
    </linearGradient>
    <linearGradient id="linear-gradient-11" x1="102.59" y1="48.49" x2="476.28" y2="48.49" gradientTransform="translate(0 110.03) scale(1 -1)" gradientUnits="userSpaceOnUse">
      <stop offset="0" stop-color="#55185b"/>
      <stop offset=".1" stop-color="#55185a"/>
      <stop offset=".52" stop-color="#4b1963"/>
      <stop offset="1" stop-color="#3a1a6e"/>
    </linearGradient>
    <linearGradient id="linear-gradient-12" x1="102.59" y1="48.49" x2="476.28" y2="48.49" gradientTransform="translate(0 110.03) scale(1 -1)" gradientUnits="userSpaceOnUse">
      <stop offset="0" stop-color="#55185b"/>
      <stop offset=".1" stop-color="#55185a"/>
      <stop offset=".52" stop-color="#4b1963"/>
      <stop offset="1" stop-color="#3a1a6e"/>
    </linearGradient>
    <linearGradient id="linear-gradient-13" x1="102.59" y1="50.99" x2="476.28" y2="50.99" gradientTransform="translate(0 110.03) scale(1 -1)" gradientUnits="userSpaceOnUse">
      <stop offset="0" stop-color="#55185b"/>
      <stop offset=".1" stop-color="#55185a"/>
      <stop offset=".52" stop-color="#4b1963"/>
      <stop offset="1" stop-color="#3a1a6e"/>
    </linearGradient>
    <linearGradient id="linear-gradient-14" x1="102.59" y1="50.99" x2="476.28" y2="50.99" gradientTransform="translate(0 110.03) scale(1 -1)" gradientUnits="userSpaceOnUse">
      <stop offset="0" stop-color="#55185b"/>
      <stop offset=".1" stop-color="#55185a"/>
      <stop offset=".52" stop-color="#4b1963"/>
      <stop offset="1" stop-color="#3a1a6e"/>
    </linearGradient>
  </defs>
  <g id="Layer_1-2" data-name="Layer 1-2">
    <path class="cls-9" d="M41.63,64.58c-1.65.18-3.24-.12-4.8-.52-1.07-.28-2.12-.75-3.12-1.24-2.02-1-3.99-2.06-5.97-3.11-.48-.25-.92-.58-1.4-.84-2.16-1.21-4.32-2.41-6.47-3.61-2.43-1.35-4.87-2.7-7.3-4.07-1.28-.71-2.51-1.49-3.83-2.11-.78-.37-1.66-.68-2.51-.75-1.64-.14-3.12-.6-4.34-1.71-.95-.84-1.42-1.96-1.72-3.17-.25-1-.22-1.97.02-2.94.22-.92.61-1.76,1.23-2.49,1.23-1.47,2.84-2.09,4.71-2.25,1.63-.15,3.05.38,4.45,1.13,1.33.72,2.69,1.39,4.02,2.11,1.25.68,2.46,1.39,3.7,2.09,1.35.76,2.69,1.51,4.04,2.27,1.8,1.01,3.59,2.03,5.4,3.03,1.26.7,2.53,1.38,3.8,2.08.68.36,1.34.74,2.02,1.11,1.66.95,3.45,1.55,5.34,1.76,1.44.16,2.92.26,4.37.19,1.12-.05,2.26-.32,3.33-.68,1.32-.44,2.63-.97,3.85-1.61,1.59-.82,3.1-1.81,4.64-2.71,1-.58,2.02-1.14,3.02-1.72,1.61-.92,3.22-1.83,4.84-2.75,1.39-.79,2.78-1.58,4.18-2.36,1.69-.96,3.39-1.91,5.1-2.85,1.02-.56,2.11-.92,3.27-1.11,1.65-.28,3.09.21,4.43,1.06,1.44.93,2.41,2.3,2.68,3.97.32,1.98-.07,3.86-1.49,5.42-1.13,1.26-2.52,1.89-4.22,2.01-1.12.07-2.23.29-3.26.89-1.69.99-3.44,1.87-5.15,2.82-1.1.6-2.19,1.23-3.27,1.85-1.88,1.08-3.76,2.17-5.65,3.26-1.73.99-3.47,1.96-5.2,2.94-1.38.78-2.72,1.62-4.13,2.34-1.29.66-2.6,1.31-3.97,1.73-1.51.45-3.05.73-4.61.53h-.03ZM67,25.24c.01,1.98-.27,3.9-.8,5.8-.17.61-.53.99-1.08,1.3-1.89,1.07-3.75,2.2-5.62,3.32-1.61.95-3.22,1.89-4.83,2.82-1.91,1.1-3.82,2.22-5.76,3.31-2.29,1.29-4.76,1.99-7.38,1.94-2.97-.04-5.75-.88-8.32-2.39-3.27-1.9-6.57-3.76-9.84-5.66-1.33-.77-2.65-1.55-3.99-2.32-.58-.33-1.17-.66-1.78-.96-.47-.23-.76-.54-.94-1.04-.65-1.92-1.09-3.91-1.07-5.94.02-1.98.32-3.92.76-5.85.61-2.66,1.69-5.1,3.17-7.39,1.82-2.84,4.1-5.22,6.78-7.21,2.6-1.92,5.52-3.27,8.65-4.12,2.61-.72,5.27-.94,7.96-.81,2.48.11,4.86.74,7.21,1.58,2.18.78,4.2,1.88,6.1,3.18,1.85,1.26,3.43,2.84,4.88,4.54,2.26,2.65,3.89,5.67,4.92,8.99.31.99.49,2.02.62,3.05.16,1.26.22,2.56.33,3.85h.03ZM41.63,86.5c-1.65.18-3.24-.12-4.8-.52-1.07-.28-2.12-.75-3.12-1.24-2.02-1-3.99-2.06-5.97-3.11-.48-.25-.92-.58-1.4-.84-2.16-1.21-4.32-2.41-6.47-3.61-2.43-1.35-4.87-2.7-7.3-4.07-1.28-.71-2.51-1.49-3.83-2.11-.78-.37-1.66-.68-2.51-.75-1.64-.14-3.12-.6-4.34-1.71-.95-.84-1.42-1.96-1.72-3.17-.25-1-.22-1.97.02-2.94.22-.92.61-1.76,1.23-2.49,1.23-1.47,2.84-2.09,4.71-2.25,1.63-.15,3.05.38,4.45,1.13,1.33.72,2.69,1.39,4.02,2.11,1.25.68,2.46,1.39,3.7,2.09,1.35.76,2.69,1.51,4.04,2.27,1.8,1.01,3.59,2.03,5.4,3.03,1.26.7,2.53,1.38,3.8,2.08.68.36,1.34.74,2.02,1.11,1.66.95,3.45,1.55,5.34,1.76,1.44.16,2.92.26,4.37.19,1.12-.05,2.26-.32,3.33-.68,1.32-.44,2.63-.97,3.85-1.61,1.59-.82,3.1-1.81,4.64-2.71,1-.58,2.02-1.14,3.02-1.72,1.61-.92,3.22-1.83,4.84-2.75,1.39-.79,2.78-1.58,4.18-2.36,1.69-.96,3.39-1.91,5.1-2.85,1.02-.56,2.11-.92,3.27-1.11,1.65-.28,3.09.21,4.43,1.06,1.44.93,2.41,2.3,2.68,3.97.32,1.98-.07,3.86-1.49,5.42-1.13,1.26-2.52,1.89-4.22,2.01-1.12.07-2.23.29-3.26.89-1.69.99-3.44,1.87-5.15,2.82-1.1.6-2.19,1.23-3.27,1.85-1.88,1.08-3.76,2.17-5.65,3.26-1.73.99-3.47,1.96-5.2,2.94-1.38.78-2.72,1.62-4.13,2.34-1.29.66-2.6,1.31-3.97,1.73-1.51.44-3.05.73-4.61.53h-.03ZM41.67,107.88c-1.65.18-3.24-.12-4.8-.52-1.07-.28-2.12-.75-3.12-1.24-2.02-1-3.99-2.06-5.97-3.11-.48-.25-.92-.58-1.4-.84-2.16-1.21-4.32-2.41-6.47-3.61-2.43-1.35-4.87-2.7-7.3-4.07-1.28-.71-2.51-1.49-3.83-2.11-.78-.37-1.66-.68-2.51-.75-1.64-.14-3.12-.6-4.34-1.71-.95-.84-1.42-1.96-1.72-3.17-.25-1-.22-1.97.02-2.94.22-.92.61-1.76,1.23-2.49,1.23-1.47,2.84-2.09,4.71-2.25,1.63-.15,3.05.38,4.45,1.13,1.33.72,2.69,1.39,4.02,2.11,1.25.68,2.46,1.39,3.7,2.09,1.35.76,2.69,1.51,4.04,2.27,1.8,1.01,3.59,2.03,5.4,3.03,1.26.7,2.53,1.38,3.8,2.08.68.36,1.34.74,2.02,1.11,1.66.95,3.45,1.55,5.34,1.76,1.44.16,2.92.26,4.37.19,1.12-.05,2.26-.32,3.33-.68,1.32-.44,2.63-.97,3.85-1.61,1.59-.82,3.1-1.81,4.64-2.71,1-.58,2.02-1.14,3.02-1.72,1.61-.92,3.22-1.83,4.84-2.75,1.39-.79,2.78-1.58,4.18-2.36,1.69-.96,3.39-1.91,5.1-2.85,1.02-.56,2.11-.92,3.27-1.11,1.65-.28,3.09.21,4.43,1.06,1.44.93,2.41,2.3,2.68,3.97.32,1.98-.07,3.86-1.49,5.42-1.13,1.26-2.52,1.89-4.22,2.01-1.12.07-2.23.29-3.26.89-1.69.99-3.44,1.87-5.15,2.82-1.1.6-2.19,1.23-3.27,1.85-1.88,1.08-3.76,2.17-5.65,3.26-1.73.99-3.47,1.96-5.2,2.94-1.38.78-2.72,1.62-4.13,2.34-1.29.66-2.6,1.31-3.97,1.73-1.51.44-3.05.73-4.61.53h-.03Z"/>
    <g>
      <path class="cls-8" d="M106.78,74.05c-1.41,0-2.5-.48-3.28-1.45-.81-.99-1.08-2.17-.82-3.55l4.38-25h10l-4.38,25h5l4.38-25h10l-4.38,25h5l4.38-25h10l-4.38,25c-.26,1.41-.96,2.59-2.11,3.55-1.17.96-2.44,1.45-3.79,1.45h-30Z"/>
      <path class="cls-7" d="M146.78,74.05l5.27-30h10l-1.29,7.5,5.43-2.5h5c1.38,0,2.46.5,3.24,1.48.81.99,1.09,2.16.86,3.52l-3.52,20h-10l3.52-20-5.43,2.5-3.09,17.5h-10,0Z"/>
      <path class="cls-6" d="M181.78,74.05c-1.41,0-2.5-.48-3.28-1.45-.81-.99-1.08-2.17-.82-3.55l1.29-7.5c.26-1.38.95-2.55,2.07-3.52,1.17-.99,2.45-1.48,3.83-1.48h10l.43-2.5h-5l-4.53-2.5.43-2.5h15c1.38,0,2.46.5,3.24,1.48.81.99,1.09,2.16.86,3.52l-3.52,20h-5l-4.57-2.5-.43,2.5h-10,0ZM192.68,69.05l1.29-7.5h-5l-1.29,7.5h5Z"/>
      <path class="cls-3" d="M211.78,74.05c-1.41,0-2.5-.48-3.28-1.45-.81-.99-1.08-2.17-.82-3.55l4.38-25h10l-.86,5h10l-.9,5h-10l-2.62,15h10l-.9,5h-15Z"/>
      <path class="cls-4" d="M236.78,74.05l4.41-25h-5l.86-5h20l-.86,5h-10l4.57,2.5-3.98,22.5h-10Z"/>
      <path class="cls-2" d="M256.78,74.05l5.27-30h10l-1.29,7.5,5.43-2.5h5c1.38,0,2.46.5,3.24,1.48.81.99,1.09,2.16.86,3.52l-3.52,20h-10l3.52-20-5.43,2.5-3.09,17.5h-10,.01Z"/>
      <path class="cls-1" d="M291.78,74.05c-1.41,0-2.5-.48-3.28-1.45-.81-.99-1.08-2.17-.82-3.55l2.62-15c.26-1.38.95-2.55,2.07-3.52,1.17-.99,2.45-1.48,3.83-1.48h15c1.38,0,2.46.5,3.24,1.48.81.99,1.09,2.16.86,3.52l-2.19,12.5h-10l-4.57-2.5-.86,5h5l4.53,2.5-.43,2.5h-15,0ZM303.97,61.55l1.33-7.5h-5l-.86,5,4.53,2.5Z"/>
      <path class="cls-5" d="M316.78,74.05l.9-5h10l1.52-8.75-9.1-5,1.09-6.25c.23-1.38.92-2.55,2.07-3.52,1.15-.99,2.41-1.48,3.79-1.48h15l-.86,5h-10l-.9,5,9.14,5-1.76,10c-.26,1.38-.96,2.57-2.11,3.55-1.15.96-2.41,1.45-3.79,1.45h-15,0Z"/>
      <path class="cls-10" d="M346.78,74.05c-1.41,0-2.5-.48-3.28-1.45-.81-.99-1.08-2.17-.82-3.55l4.38-25h10l-.86,5h10l-.9,5h-10l-2.62,15h10l-.9,5h-15Z"/>
      <path class="cls-11" d="M371.78,74.05c-1.41,0-2.5-.48-3.28-1.45-.81-.99-1.08-2.17-.82-3.55l1.29-7.5c.26-1.38.95-2.55,2.07-3.52,1.17-.99,2.45-1.48,3.83-1.48h10l.43-2.5h-5l-4.53-2.5.43-2.5h15c1.38,0,2.46.5,3.24,1.48.81.99,1.09,2.16.86,3.52l-3.52,20h-5l-4.57-2.5-.43,2.5h-10,0ZM382.68,69.05l1.29-7.5h-5l-1.29,7.5h5Z"/>
      <path class="cls-12" d="M401.78,74.05c-1.41,0-2.5-.48-3.28-1.45-.81-.99-1.08-2.17-.82-3.55l2.62-15c.26-1.38.95-2.55,2.07-3.52,1.17-.99,2.45-1.48,3.83-1.48h15l-.9,5h-10l-2.62,15h10l-.9,5h-15Z"/>
      <path class="cls-13" d="M421.78,74.05l5.27-30h10l-2.62,15,5.43-2.5,1.33-7.5h10l-1.33,7.5-5.43,2.5,4.53,2.5-2.19,12.5h-10l2.19-12.5-5.43,2.5-1.76,10h-10,.01Z"/>
      <path class="cls-14" d="M451.78,74.05l.9-5h10l-.9,5h-10ZM453.11,66.55l1.33-7.5h10l1.76-10h-10l.86-5h15c1.38,0,2.47.5,3.28,1.48.81.99,1.09,2.16.86,3.52l-1.76,10c-.26,1.41-.96,2.59-2.11,3.55-1.17.96-2.44,1.45-3.79,1.45l-4.57-2.5-.43,2.5-5.43,2.5h-5,0Z"/>
    </g>
  </g>
</svg>