<svg width="148" height="40" viewBox="0 0 148 40" fill="none" xmlns="http://www.w3.org/2000/svg">
  <g clip-path="url(#clip0_sigma)">
    <path d="M49.1449 34.9749C49.1449 33.7566 50.0805 33.1665 51.3165 33.1665C52.7095 33.1665 53.5927 34.064 53.5927 35.1858H52.6572C52.6572 34.3938 52.2156 33.9877 51.3187 33.9877C50.4947 33.9877 50.0827 34.3198 50.0827 34.957C50.0827 35.4551 50.4014 35.7961 51.469 36.09C53.1147 36.5522 53.6109 37.1872 53.6109 38.2036C53.6109 39.4847 52.6754 39.9828 51.3643 39.9828C49.8688 39.9828 48.9332 39.2267 48.9332 37.9635H49.8688C49.8688 38.7376 50.4105 39.1616 51.3643 39.1616C52.2543 39.1616 52.6754 38.8385 52.6754 38.2305C52.6754 37.4183 51.8332 37.1087 51.2049 36.9292C49.6889 36.5051 49.1449 35.8903 49.1449 34.9749Z" fill="black"/>
    <path d="M54.3959 37.5484V37.4092C54.3959 35.9621 55.0036 35.0107 56.3603 35.0107C57.7169 35.0107 58.3247 35.9621 58.3247 37.4092V37.5484C58.3247 38.9125 57.8694 39.9917 56.3603 39.9917C54.8511 39.9917 54.3959 38.9125 54.3959 37.5484ZM55.2381 37.4362V37.5932C55.2381 38.7151 55.4908 39.2536 56.3603 39.2536C57.2298 39.2536 57.4825 38.7106 57.4825 37.5932V37.4362C57.4825 36.2829 57.2207 35.7489 56.3603 35.7489C55.4999 35.7489 55.2449 36.2829 55.2449 37.4362H55.2381Z" fill="black"/>
    <path d="M61.7466 33.9316C61.604 33.9131 61.4603 33.9041 61.3164 33.9047C60.7655 33.9047 60.5675 34.1986 60.5675 34.7909V35.1028H61.5987V35.841H60.5675V39.8998H59.7253V35.841H58.9491V35.1028H59.7344V34.7999C59.7344 33.7656 60.2124 33.1665 61.2504 33.1665C61.4204 33.1663 61.59 33.1851 61.7557 33.2226L61.7466 33.9316Z" fill="black"/>
    <path d="M64.9741 39.844C64.8084 39.8815 64.6388 39.9003 64.4688 39.9001C63.4308 39.9001 62.9528 39.301 62.9528 38.2667V35.8413H62.1675V35.1031H62.9528V33.813H63.795V35.1031H64.8261V35.8413H63.795V38.2757C63.795 38.868 63.993 39.1889 64.5439 39.1889C64.6877 39.1895 64.8315 39.1805 64.9741 39.1619V39.844Z" fill="black"/>
    <path d="M69.9799 38.6072L70.7766 35.1025H71.6643L70.3305 39.8995H69.6476L68.5641 36.4218L67.5056 39.8995H66.8227L65.4934 35.1025H66.3834L67.2052 38.5331L68.2454 35.1025H68.9283L69.9799 38.6072Z" fill="black"/>
    <path d="M75.163 39.8997C75.0958 39.735 75.0551 39.5608 75.0423 39.3837C74.8785 39.5761 74.6736 39.7303 74.4422 39.8354C74.2108 39.9406 73.9587 39.9939 73.7039 39.9917C72.8321 39.9917 72.131 39.4465 72.131 38.5715C72.131 37.5484 72.8617 36.947 74.2729 36.947H75.0218V36.6352C75.0218 36.0249 74.7942 35.7489 74.1113 35.7489C73.5423 35.7489 73.2145 36.0249 73.1758 36.4871H72.3336C72.3905 35.5896 73.0825 35.0107 74.1546 35.0107C75.2927 35.0107 75.8663 35.6008 75.8663 36.5813V38.7487C75.8534 39.1394 75.9207 39.5286 76.0644 39.893L75.163 39.8997ZM75.0218 38.4413V37.6852H74.4414C73.4034 37.6852 72.9732 37.9432 72.9732 38.4974C72.9732 39.0135 73.2737 39.2536 73.8336 39.2536C74.0905 39.2473 74.3399 39.1671 74.5511 39.0228C74.7622 38.8784 74.9259 38.6763 75.0218 38.4413Z" fill="black"/>
    <path d="M79.4358 35.8142C79.268 35.7702 79.0949 35.7483 78.9212 35.7491C78.3679 35.7491 78.0104 36.1732 77.8442 36.6466V39.9022H77.0017V35.1029H77.826V35.7132C77.9323 35.5047 78.0947 35.3289 78.2955 35.205C78.4962 35.0812 78.7277 35.0141 78.9645 35.0109C79.125 35.0079 79.2843 35.0393 79.4313 35.1029L79.4358 35.8142Z" fill="black"/>
    <path d="M83.7781 38.5625C83.688 38.9731 83.456 39.3401 83.1217 39.6008C82.7875 39.8615 82.3718 39.9997 81.9457 39.9917C80.4843 39.9917 79.8584 38.9866 79.8584 37.6673V37.5192C79.8197 36.072 80.6437 35.0107 81.8319 35.0107C83.1134 35.0107 83.7781 35.9082 83.7781 37.4653V37.8692H80.7097C80.7575 38.7285 81.0921 39.2536 81.9457 39.2536C82.1576 39.2628 82.3661 39.1988 82.5353 39.0726C82.7044 38.9464 82.8236 38.766 82.8721 38.5625H83.7781ZM80.737 37.1333H82.9268C82.8812 36.2201 82.5444 35.7489 81.8319 35.7489C81.1581 35.7489 80.8417 36.247 80.737 37.1333Z" fill="black"/>
    <path d="M49.0215 28.5737H62.1077C64.8938 28.5737 67.161 26.4736 67.161 23.8911V23.0138C67.161 20.4785 65.019 18.4233 62.2853 18.3357H62.1965H53.3532C52.9959 18.3466 52.6489 18.2174 52.3881 17.9764C52.1274 17.7354 51.9743 17.4023 51.9624 17.0501V16.2042C51.9737 15.8515 52.1265 15.5176 52.3872 15.2758C52.6479 15.0339 52.9953 14.9038 53.3532 14.9141H66.1731V11.5127H53.3532C50.5671 11.5127 48.2999 13.6128 48.2999 16.1953V17.0434C48.2999 19.6236 50.5762 21.726 53.3532 21.726H62.1077C62.4652 21.7163 62.812 21.8466 63.0722 22.0884C63.3325 22.3302 63.4849 22.6638 63.4962 23.0161V23.8934C63.4843 24.2453 63.3316 24.5783 63.0715 24.8196C62.8113 25.0609 62.4648 25.1909 62.1077 25.1812H49.0215V28.5737Z" fill="black"/>
    <path d="M75.162 11.5151H71.4995V28.5739H75.162V11.5151Z" fill="black"/>
    <path d="M122.745 28.5651H126.41V16.2002C126.41 13.6177 124.133 11.5176 121.354 11.5176H103.108V28.5696H106.75V14.9123H112.85V28.5651H116.506V14.9123H121.359C121.716 14.9049 122.061 15.0356 122.322 15.2763C122.582 15.517 122.736 15.8486 122.752 16.2002L122.745 28.5651Z" fill="black"/>
    <path d="M148.002 16.1953C148.002 13.6128 145.726 11.5127 142.944 11.5127H131.31V14.9074H142.942C143.299 14.9 143.645 15.0307 143.905 15.2714C144.165 15.5121 144.32 15.8437 144.335 16.1953V18.329H135.103C132.316 18.329 130.049 20.4314 130.049 23.0138V23.8821C130.049 26.4646 132.326 28.5647 135.103 28.5647H147.986L148.002 16.1953ZM144.328 25.17H135.103C134.746 25.1774 134.4 25.0467 134.14 24.806C133.879 24.5653 133.725 24.2337 133.71 23.8821V23.0138C133.724 22.6619 133.879 22.3297 134.139 22.0885C134.399 21.8473 134.745 21.7164 135.103 21.7237H144.335L144.328 25.17Z" fill="black"/>
    <path d="M80.101 23.8938C80.101 26.4762 82.3773 28.5763 85.1543 28.5763H98.0539V18.3406H88.4162V21.7353H94.3709V25.1816H85.1543C84.7968 25.1919 84.4498 25.0622 84.1891 24.8208C83.9284 24.5794 83.7754 24.2461 83.7635 23.8938V16.2002C83.7783 15.8482 83.9325 15.516 84.1929 15.2748C84.4534 15.0337 84.7993 14.9027 85.1566 14.91H98.0243V11.5176H85.152C82.3636 11.5176 80.0988 13.6177 80.0988 16.2002L80.101 23.8938Z" fill="black"/>
    <path d="M40.5793 19.9989C40.5793 17.1561 34.6428 14.7486 26.4482 13.9409C26.644 15.857 26.751 17.8943 26.751 19.9989C26.7529 22.0256 26.6518 24.0512 26.4482 26.0681C34.6428 25.2491 40.5793 22.8439 40.5793 19.9989Z" fill="url(#paint0_linear_sigma)"/>
    <path d="M20.2908 26.3665C22.347 26.3694 24.4021 26.2698 26.4481 26.0681C26.6517 24.0512 26.7527 22.0256 26.7508 19.9989C26.7508 17.8831 26.6439 15.8458 26.4481 13.9409L14.1335 26.0793C16.1797 26.2773 18.2348 26.3732 20.2908 26.3665Z" fill="url(#paint1_linear_sigma)"/>
    <path d="M20.2903 13.6314C22.3465 13.6295 24.4015 13.7291 26.4476 13.9298C25.6168 5.85251 23.1743 0.000976562 20.2903 0.000976562C17.4063 0.000976562 14.9639 5.85251 14.1444 13.9298C16.1867 13.7295 18.2379 13.6299 20.2903 13.6314Z" fill="#E30613"/>
    <path d="M20.2903 26.3663C18.2379 26.3678 16.1867 26.2682 14.1444 26.0679C14.9752 34.1451 17.4177 39.9989 20.2903 39.9989C23.1629 39.9989 25.6168 34.1451 26.4476 26.0679C24.4015 26.2685 22.3465 26.3681 20.2903 26.3663Z" fill="#E30613"/>
    <path d="M13.8305 19.9989C13.829 17.9758 13.9301 15.954 14.1333 13.9409C5.93876 14.7599 0 17.1673 0 19.9989C0 22.8304 5.93876 25.2491 14.1333 26.0681C13.9297 24.0512 13.8287 22.0256 13.8305 19.9989Z" fill="#E30613"/>
    <path d="M14.1333 13.9298C13.7297 17.9661 13.7297 22.0318 14.1333 26.0681L26.4479 13.9298C22.3529 13.5319 18.2282 13.5319 14.1333 13.9298Z" fill="#B70E0C"/>
  </g>
  <defs>
    <linearGradient id="paint0_linear_sigma" x1="28.3541" y1="13.0943" x2="35.1294" y2="25.0052" gradientUnits="userSpaceOnUse">
      <stop stop-color="#7C7C7B"/>
      <stop offset="0.27" stop-color="#5B5B5A"/>
      <stop offset="0.56" stop-color="#40403F"/>
      <stop offset="0.81" stop-color="#30302F"/>
      <stop offset="1" stop-color="#2A2A29"/>
    </linearGradient>
    <linearGradient id="paint1_linear_sigma" x1="19.0336" y1="18.3232" x2="24.2515" y2="27.495" gradientUnits="userSpaceOnUse">
      <stop stop-color="#9C1006"/>
      <stop offset="0.08" stop-color="#951005"/>
      <stop offset="0.44" stop-color="#7A0E02"/>
      <stop offset="0.76" stop-color="#6A0C01"/>
      <stop offset="1" stop-color="#640C00"/>
    </linearGradient>
    <clipPath id="clip0_sigma">
      <rect width="148" height="40" fill="white"/>
    </clipPath>
  </defs>
</svg>
